<svg width="65" height="31" viewBox="0 0 65 31" fill="none" xmlns="http://www.w3.org/2000/svg">
<rect width="65" height="31" fill="#5E5E5E"/>
<path fill-rule="evenodd" clip-rule="evenodd" d="M11.9117 22.6559V21.4159H9.26667C7.11667 21.4159 5.43333 22.2709 5.43333 23.8875C5.43333 25.4925 6.54333 26.4692 8.28667 26.4692C10.2883 26.4692 11.9117 24.7142 11.9117 22.6559ZM17.6483 18.0692V30.0559H11.9483V27.8025C11.0517 29.0509 8.81833 30.3459 6.38833 30.3459C2.615 30.3459 0 27.6109 0 24.2042C0 20.7042 2.80833 18.2792 8.005 18.2792H11.9117V17.8109C11.9117 16.4392 10.7217 14.9559 8.235 14.9559C6.6 14.9559 5.24 15.2925 3.16833 16.3475L1.475 12.7759C3.89667 11.5325 6.52333 10.1742 9.795 10.1742C15.1733 10.1742 17.6483 13.8759 17.6483 18.0692Z" fill="white"/>
<path fill-rule="evenodd" clip-rule="evenodd" d="M21.62 30.0558H27.4283V10.4658H21.62V30.0558Z" fill="white"/>
<path fill-rule="evenodd" clip-rule="evenodd" d="M64.3885 17.6983V30.0567H58.5802V19.4433C58.5802 17.1167 56.7685 15.7 54.6969 15.7C52.3352 15.7717 50.7835 17.6983 50.7835 20.3517V30.0567H44.9385V19.4433C44.9385 17.1167 43.1269 15.7 41.0552 15.7C38.6569 15.7717 37.1669 17.6983 37.1669 20.3517V30.0567H31.4019V10.465H37.1669V13.7C38.1252 11.76 40.5969 10.175 43.2469 10.175C46.4452 10.175 48.7535 11.8467 49.7352 14.6083C51.0069 11.7017 53.6552 10.2117 56.8885 10.175C61.1785 10.175 64.3885 13.12 64.3885 17.6983Z" fill="white"/>
<path fill-rule="evenodd" clip-rule="evenodd" d="M20.189 4.29L24.479 0L28.769 4.29L24.479 8.58L20.189 4.29Z" fill="#00D7FF"/>
</svg>
